<svg width="35" height="36" viewBox="0 0 35 36" fill="none" xmlns="http://www.w3.org/2000/svg">
<path fill-rule="evenodd" clip-rule="evenodd" d="M8.54613 2.88281C6.84444 2.88281 5.21241 3.55864 4.00891 4.76168C2.8054 5.96473 2.12895 7.59649 2.1283 9.29818V26.4124C2.1283 28.1145 2.80446 29.7469 4.00804 30.9505C5.21161 32.1541 6.84401 32.8302 8.54613 32.8302H25.6604C27.362 32.8296 28.9938 32.1531 30.1969 30.9496C31.3999 29.7461 32.0757 28.1141 32.0757 26.4124V9.29818C32.0751 7.59692 31.399 5.96553 30.196 4.76255C28.993 3.55958 27.3616 2.88347 25.6604 2.88281H8.54613ZM27.5063 9.30804C27.5063 9.79828 27.3116 10.2684 26.9649 10.6151C26.6183 10.9617 26.1481 11.1565 25.6579 11.1565C25.1676 11.1565 24.6975 10.9617 24.3508 10.6151C24.0042 10.2684 23.8094 9.79828 23.8094 9.30804C23.8094 8.8178 24.0042 8.34764 24.3508 8.00099C24.6975 7.65433 25.1676 7.45959 25.6579 7.45959C26.1481 7.45959 26.6183 7.65433 26.9649 8.00099C27.3116 8.34764 27.5063 8.8178 27.5063 9.30804ZM17.1057 12.7289C15.7461 12.7289 14.4422 13.269 13.4808 14.2304C12.5194 15.1918 11.9793 16.4957 11.9793 17.8553C11.9793 19.2149 12.5194 20.5188 13.4808 21.4802C14.4422 22.4416 15.7461 22.9817 17.1057 22.9817C18.4653 22.9817 19.7692 22.4416 20.7306 21.4802C21.692 20.5188 22.2321 19.2149 22.2321 17.8553C22.2321 16.4957 21.692 15.1918 20.7306 14.2304C19.7692 13.269 18.4653 12.7289 17.1057 12.7289ZM9.51226 17.8553C9.51226 15.842 10.312 13.9112 11.7356 12.4877C13.1592 11.0641 15.09 10.2643 17.1032 10.2643C19.1165 10.2643 21.0473 11.0641 22.4709 12.4877C23.8945 13.9112 24.6942 15.842 24.6942 17.8553C24.6942 19.8685 23.8945 21.7993 22.4709 23.2229C21.0473 24.6465 19.1165 25.4463 17.1032 25.4463C15.09 25.4463 13.1592 24.6465 11.7356 23.2229C10.312 21.7993 9.51226 19.8685 9.51226 17.8553Z" fill="black"/>
</svg>
