<svg width="32" height="30" viewBox="0 0 32 30" fill="none" xmlns="http://www.w3.org/2000/svg">
<path d="M23.9258 0.26416H7.53618C5.56977 0.26416 3.6839 1.04531 2.29344 2.43577C0.902979 3.82624 0.121826 5.71211 0.121826 7.67851V21.7268C0.121826 22.7004 0.313604 23.6646 0.68621 24.5641C1.05882 25.4637 1.60495 26.281 2.29344 26.9695C3.6839 28.36 5.56977 29.1411 7.53618 29.1411H23.9258C25.891 29.137 27.7744 28.3545 29.164 26.965C30.5536 25.5754 31.336 23.6919 31.3402 21.7268V7.67851C31.336 5.71337 30.5536 3.8299 29.164 2.44033C27.7744 1.05076 25.891 0.268284 23.9258 0.26416ZM18.2285 13.251C17.4605 13.689 16.5917 13.9193 15.7076 13.9193C14.8235 13.9193 13.9547 13.689 13.1867 13.251L2.49442 7.11658C2.63268 5.87613 3.22338 4.73017 4.15354 3.89792C5.08371 3.06567 6.28804 2.60554 7.53618 2.60554H23.9258C25.173 2.60895 26.3755 3.07027 27.3049 3.90188C28.2343 4.73349 28.826 5.87747 28.9676 7.11658L18.2285 13.251Z" fill="black"/>
</svg>
