<svg width="34" height="34" viewBox="0 0 34 34" fill="none" xmlns="http://www.w3.org/2000/svg">
<path d="M17 0.333496C13.7036 0.333496 10.4813 1.31098 7.74048 3.14234C4.99966 4.97369 2.86346 7.57667 1.602 10.6221C0.340534 13.6675 0.0104788 17.0187 0.653566 20.2517C1.29665 23.4847 2.884 26.4544 5.21487 28.7853C7.54575 31.1162 10.5155 32.7035 13.7485 33.3466C16.9815 33.9897 20.3326 33.6596 23.378 32.3982C26.4235 31.1367 29.0265 29.0005 30.8578 26.2597C32.6892 23.5188 33.6667 20.2965 33.6667 17.0002C33.6622 12.5812 31.9049 8.34457 28.7802 5.21992C25.6556 2.09527 21.4189 0.337908 17 0.333496ZM26.8983 13.1885V14.2652C26.8984 14.3476 26.8819 14.4291 26.8498 14.5051C26.8178 14.581 26.7709 14.6497 26.7119 14.7072C26.6528 14.7647 26.5829 14.8098 26.5061 14.8398C26.4293 14.8698 26.3474 14.8841 26.265 14.8818C24.5053 14.7575 22.8217 14.1149 21.4267 13.0352V20.9152C21.4263 21.7873 21.2522 22.6506 20.9145 23.4547C20.5768 24.2588 20.0824 24.9876 19.46 25.5985C18.8325 26.2254 18.0862 26.7208 17.2649 27.0556C16.4435 27.3904 15.5636 27.558 14.6767 27.5485C12.8931 27.5459 11.1812 26.8461 9.90665 25.5985C9.09564 24.7808 8.51148 23.7661 8.21165 22.6542C7.91182 21.5422 7.90665 20.3714 8.19665 19.2568C8.46165 18.1868 8.99665 17.2035 9.75165 16.4018C10.3147 15.7136 11.0244 15.16 11.829 14.7814C12.6335 14.4027 13.5125 14.2087 14.4017 14.2135H15.7683V17.0518C15.7689 17.1343 15.752 17.2159 15.7185 17.2912C15.6851 17.3666 15.636 17.434 15.5745 17.4888C15.513 17.5437 15.4405 17.5849 15.3618 17.6095C15.2832 17.6342 15.2002 17.6418 15.1183 17.6318C14.3248 17.3935 13.4697 17.4725 12.7334 17.8523C11.997 18.2321 11.4369 18.883 11.1711 19.6677C10.9052 20.4525 10.9545 21.3098 11.3084 22.0589C11.6623 22.8081 12.2933 23.3905 13.0683 23.6835C13.5183 23.9418 14.0217 24.0935 14.5383 24.1285C14.9383 24.1452 15.3383 24.0952 15.7183 23.9752C16.3527 23.7611 16.9045 23.3545 17.2968 22.812C17.689 22.2694 17.9022 21.618 17.9067 20.9485V6.59016C17.9067 6.43132 17.9696 6.27896 18.0818 6.16649C18.194 6.05401 18.3461 5.9906 18.505 5.99016H20.8633C21.0166 5.99035 21.1639 6.04916 21.2752 6.15453C21.3864 6.25989 21.4531 6.40383 21.4617 6.55683C21.5476 7.29221 21.7812 8.00266 22.1483 8.64561C22.5155 9.28855 23.0087 9.85075 23.5983 10.2985C24.3951 10.8966 25.3415 11.2634 26.3333 11.3585C26.4819 11.3712 26.6208 11.4373 26.7244 11.5445C26.8279 11.6518 26.8891 11.7929 26.8967 11.9418L26.8983 13.1885Z" fill="black"/>
</svg>
