<svg width="37" height="37" viewBox="0 0 37 37" fill="none" xmlns="http://www.w3.org/2000/svg">
<path d="M31.8027 9.66612C27.038 2.27969 17.2806 0.0911241 9.73458 4.67344C2.37095 9.25576 0 19.2411 4.7647 26.6047L5.15226 27.1975L3.55643 33.1705L9.5294 31.5746L10.1221 31.9622C12.6983 33.3528 15.5024 34.1507 18.2837 34.1507C21.2702 34.1507 24.2567 33.3528 26.8328 31.757C34.1964 26.9695 36.385 17.1893 31.8027 9.62052V9.66612ZM27.6307 25.0317C26.8328 26.2172 25.8297 27.0151 24.439 27.2203C23.6411 27.2203 22.638 27.6078 18.6712 26.0348C15.2972 24.439 12.4931 21.84 10.5097 18.8536C9.32422 17.4629 8.70868 15.6619 8.5263 13.8609C8.5263 12.265 9.11904 10.8744 10.1221 9.8713C10.5097 9.48374 10.9201 9.27856 11.3076 9.27856H12.3107C12.6983 9.27856 13.1086 9.27856 13.3138 10.0765C13.7014 11.0796 14.7045 13.4733 14.7045 13.6785C14.9096 13.8837 14.8184 15.4111 13.9065 16.2774C13.405 16.8474 13.3138 16.8702 13.519 17.2805C14.3169 18.466 15.32 19.6743 16.3003 20.6774C17.4858 21.6805 18.694 22.4784 20.0847 23.0711C20.4722 23.2763 20.8826 23.2763 21.0878 22.8659C21.293 22.4784 22.2733 21.4753 22.6836 21.0649C23.0712 20.6774 23.2764 20.6774 23.6867 20.8597L26.8784 22.4556C27.2659 22.6608 27.6763 22.8431 27.8815 23.0483C28.0866 23.6411 28.0866 24.439 27.6763 25.0317H27.6307Z" fill="black"/>
</svg>
